<?xml version="1.0" encoding="UTF-8" standalone="no"?>
<!-- Created with Inkscape (http://www.inkscape.org/) -->
<svg
   xmlns:dc="http://purl.org/dc/elements/1.1/"
   xmlns:cc="http://web.resource.org/cc/"
   xmlns:rdf="http://www.w3.org/1999/02/22-rdf-syntax-ns#"
   xmlns:svg="http://www.w3.org/2000/svg"
   xmlns="http://www.w3.org/2000/svg"
   xmlns:sodipodi="http://inkscape.sourceforge.net/DTD/sodipodi-0.dtd"
   xmlns:inkscape="http://www.inkscape.org/namespaces/inkscape"
   id="svg2"
   sodipodi:version="0.32"
   inkscape:version="0.43"
   width="1100pt"
   height="545pt"
   sodipodi:docbase="C:\Paul\Icons"
   sodipodi:docname="steel twin bed.svg"
   version="1.0">
  <metadata
     id="metadata7">
    <rdf:RDF>
      <cc:Work
         rdf:about="">
        <dc:format>image/svg+xml</dc:format>
        <dc:type
           rdf:resource="http://purl.org/dc/dcmitype/StillImage" />
      </cc:Work>
    </rdf:RDF>
  </metadata>
  <defs
     id="defs5" />
  <sodipodi:namedview
     inkscape:window-height="704"
     inkscape:window-width="1280"
     inkscape:pageshadow="2"
     inkscape:pageopacity="0.0"
     borderopacity="1.0"
     bordercolor="#666666"
     pagecolor="#ffffff"
     id="base"
     inkscape:zoom="0.52525436"
     inkscape:cx="506.17374"
     inkscape:cy="227.15404"
     inkscape:window-x="-4"
     inkscape:window-y="-4"
     inkscape:current-layer="svg2" />
  <g
     id="g2236"
     transform="translate(1.90384,39.98063)">
    <path
       sodipodi:nodetypes="ccccsc"
       id="path2189"
       d="M 748.8894,523.94153 L 303.05317,394.22169 C 201.39131,267.35577 685.87394,111.22636 725.03135,112.90172 L 1090.4192,176.6668 C 1297.5904,225.32894 1544.7682,317.25345 1125.9276,407.12052 C 999.10985,434.33072 817.05551,551.7932 748.8894,523.94153 z "
       style="fill:#fc4f4f;fill-opacity:1;fill-rule:evenodd;stroke:#0000ef;stroke-width:3;stroke-linecap:butt;stroke-linejoin:miter;stroke-miterlimit:4;stroke-dasharray:none;stroke-opacity:1" />
    <path
       sodipodi:nodetypes="ccccc"
       id="path2197"
       d="M 224.00889,376.16321 L 34.164494,323.05384 C 44.324097,198.20522 265.67528,72.642161 306.52787,141.24899 L 518.0746,124.90214 L 224.00889,376.16321 z "
       style="fill:#fc4f4f;fill-opacity:1;fill-rule:evenodd;stroke:#0000ef;stroke-width:3;stroke-linecap:butt;stroke-linejoin:miter;stroke-miterlimit:4;stroke-dasharray:none;stroke-opacity:1" />
    <path
       sodipodi:nodetypes="cccc"
       id="path2187"
       d="M 546.63791,157.86347 L 240.76429,154.46866 C 272.67303,99.884975 477.66429,40.757351 709.9819,103.4564 C 635.37466,131.67172 601.08591,139.72778 546.63791,157.86347 z "
       style="fill:#fc4f4f;fill-opacity:1;fill-rule:evenodd;stroke:#0000ef;stroke-width:3;stroke-linecap:butt;stroke-linejoin:miter;stroke-miterlimit:4;stroke-dasharray:none;stroke-opacity:1" />
    <path
       sodipodi:nodetypes="ccsccsc"
       id="path2193"
       d="M 633.52369,72.377137 C 644.93413,63.383747 778.43416,107.68282 736.57097,117.75891 L 412.72459,232.91926 C 328.95834,262.70669 316.47345,352.50648 328.94103,400.64702 L 221.26754,378.45791 C 210.42965,367.545 197.32411,257.52047 238.76497,222.20776 C 302.59502,167.8167 623.39227,69.308397 633.52369,72.377137 z "
       style="fill:#eeeeec;fill-opacity:1;fill-rule:evenodd;stroke:#0000ef;stroke-width:3;stroke-linecap:butt;stroke-linejoin:miter;stroke-miterlimit:4;stroke-dasharray:none;stroke-opacity:1" />
    <path
       sodipodi:nodetypes="csccccsssscssscsssscssccccccccccccccccccscccccccccsccccccccccccccccccccccccccccccccccccc"
       id="path1308"
       d="M 415.26632,78.669682 C 396.24038,83.45435 413.54468,-4.9314939 404.78881,-2.7575298 L 354.92624,9.6226723 L 352.72165,105.23125 L 338.57774,106.72017 L 340.59813,11.527094 L 286.04163,24.165875 L 284.02587,115.54004 C 283.28621,149.06891 293.79456,115.46563 272.66732,119.18555 C 263.41097,120.81533 277.91512,26.02185 269.39949,28.593801 L 224.9303,42.024708 L 220.54636,131.15345 C 218.09749,180.94096 243.8037,135.51467 211.13144,142.2953 C 199.27443,144.75604 216.89196,42.540934 207.20823,45.741077 L 169.83457,58.091799 L 167.1866,158.7602 C 165.77428,212.4526 190.07389,155.58301 155.73187,164.85593 C 144.17289,167.97704 162.51598,60.841067 153.1586,63.903156 C 129.52733,71.636204 107.08225,84.82633 107.03733,87.005462 L 104.00128,234.30187 C 104.61993,197.79511 95.177647,253.31896 89.699613,224.80952 C 84.869255,199.67079 94.669908,91.09555 92.397195,92.24535 C 66.106247,105.54634 48.245382,121.57853 46.809677,140.6569 L 41.453449,311.22353 L 747.36997,511.45094 L 752.03897,386.80407 C 742.32696,351.22689 758.4927,319.1412 788.38664,287.52462 C 872.78706,243.11487 1204.573,162.35057 1300.6992,141.39242 C 1340.0588,133.89911 1362.5499,145.1485 1365.7642,177.81654 L 1358.5849,436.21836 L 1336.42,444.02462 L 1339.0807,350.94584 L 776.58639,548.18813 L 774.02802,639.88448 L 746.36586,637.39962 L 742.30206,543.59926 L 45.414103,346.42229 L 39.374015,456.47383 C 38.858418,470.31709 29.122374,474.9399 4.5381004,464.71449 L 9.1381902,128.86944 C 16.399463,102.2512 44.460115,81.255504 81.293086,64.698369 C 171.52022,24.139522 495.20636,-32.414472 513.92205,-37.108296 C 561.43938,-8.170282 536.18438,26.788879 548.18089,52.827999 L 529.84809,53.366803 C 530.1933,1.5616273 533.62094,-37.337279 479.15398,-18.84431 L 479.45149,69.529846 L 466.39618,73.235617 L 464.45218,-15.825077 L 421.61437,-5.6506997 L 420.75571,77.289202 L 415.26632,78.669682 z M 846.85334,294.91801 L 844.57751,489.23498 L 774.26315,517.63235 L 779.0138,384.92708 C 786.29762,338.75476 795.41578,308.97853 846.85334,294.91801 z M 1285.4717,170.76858 L 1226.8006,186.41793 L 1225.9105,367.32122 L 1285.4847,344.3805 L 1285.4717,170.76858 z M 922.94383,268.86675 L 861.93701,285.47909 L 855.35857,487.69566 L 918.99558,465.68461 M 1215.2488,187.57632 L 1211.777,370.73662 L 1155.9696,390.56568 L 1162.5091,202.74846 L 1215.2488,187.57632 z M 1349.2834,194.38307 L 1344.1569,318.55649 L 1303.3408,338.44454 L 1303.5151,164.58741 C 1319.0347,168.8713 1341.4733,163.11594 1349.2834,194.38307 z M 994.48824,441.34541 L 997.81461,243.04064 L 936.86722,263.08588 L 936.54611,460.48718 L 994.48824,441.34541 z M 1083.5833,413.02824 L 1144.67,391.54068 L 1146.2592,208.06185 L 1086.7994,220.87203 M 1071.2301,222.81819 L 1011.8363,240.18208 L 1004.0194,437.66815 L 1068.9871,413.02825"
       style="fill:#2e3436;fill-opacity:0.94117647;fill-rule:evenodd;stroke:none;stroke-width:3;stroke-linecap:butt;stroke-linejoin:miter;stroke-miterlimit:4;stroke-dasharray:none;stroke-opacity:1" />
    <path
       id="path2191"
       d="M 234.60228,243.70557 C 179.71063,244.19769 124.13592,266.0775 73.254831,230.47461 L 85.304464,196.3183 C 219.46873,171.54957 294.37682,251.35466 234.60228,243.70557 z "
       style="fill:#eeeeec;fill-opacity:1;fill-rule:evenodd;stroke:#0000ef;stroke-width:3;stroke-linecap:butt;stroke-linejoin:miter;stroke-miterlimit:4;stroke-dasharray:none;stroke-opacity:1" />
    <path
       sodipodi:nodetypes="cccc"
       id="path1357"
       d="M 468.10547,154.7363 C 413.21382,155.22842 421.18046,154.89907 370.29937,119.29618 L 342.01035,78.416765 C 476.17462,53.648034 527.88001,162.38539 468.10547,154.7363 z "
       style="fill:#eeeeec;fill-opacity:1;fill-rule:evenodd;stroke:#0000ef;stroke-width:3;stroke-linecap:butt;stroke-linejoin:miter;stroke-miterlimit:4;stroke-dasharray:none;stroke-opacity:1" />
    <path
       sodipodi:nodetypes="ccccc"
       id="path1359"
       d="M 469.90123,155.57687 C 442.01562,105.70392 420.86879,70.908718 350.69262,82.200139 C 427.55953,43.093017 348.31229,82.573492 489.61023,34.889477 C 539.28928,5.4251682 605.64983,53.766078 651.2078,90.855488 C 588.9306,126.68536 511.36987,152.27447 469.90123,155.57687 z "
       style="fill:#eeeeec;fill-opacity:1;fill-rule:evenodd;stroke:#0000ef;stroke-width:3;stroke-linecap:butt;stroke-linejoin:miter;stroke-miterlimit:4;stroke-dasharray:none;stroke-opacity:1" />
    <path
       id="path2185"
       d="M 254.46995,243.65389 C 226.58434,193.78094 146.52185,186.61154 76.34568,197.90296 C 153.21259,158.79584 140.01693,149.2684 281.31487,101.58439 C 330.99392,72.12008 389.68777,99.93782 435.24574,137.02723 C 435.24574,174.80326 297.88475,203.3744 254.46995,243.65389 z "
       style="fill:#eeeeec;fill-opacity:1;fill-rule:evenodd;stroke:#0000ef;stroke-width:3;stroke-linecap:butt;stroke-linejoin:miter;stroke-miterlimit:4;stroke-dasharray:none;stroke-opacity:1" />
  </g>
</svg>
